Coordinates
version=1
nRows=12
nColumns=24
inDegrees=yes

Units are S.I. units (second, meters, Newtons, ...)
Angles are in degrees.

endheader
time	pelvis_tilt	pelvis_list	pelvis_rotation	pelvis_tx	pelvis_ty	pelvis_tz	hip_flexion_r	hip_adduction_r	hip_rotation_r	knee_angle_r	ankle_angle_r	subtalar_angle_r	mtp_angle_r	hip_flexion_l	hip_adduction_l	hip_rotation_l	knee_angle_l	ankle_angle_l	subtalar_angle_l	mtp_angle_l	lumbar_extension	lumbar_bending	lumbar_rotation
      5.86000000	     -0.26197991	     -1.73263133	     -5.35002777	     -1.98926329	      0.66550886	      0.20312786	    -13.65319581	      4.58500165	      1.65135761	    -14.06651043	     15.35543596	     -9.02808045	      0.00000000	     20.09315831	      2.12243484	      5.43653556	     -6.89519680	      4.18489964	    -12.05961651	      0.00000000	    -11.62342090	     -1.00414751	      9.45552489
      5.87000000	     -0.13725598	     -1.23155666	     -5.39175033	     -1.97755443	      0.66531700	      0.20325082	    -13.57427581	      3.91610909	      1.45786608	    -16.30967568	     14.07271941	     -8.98623605	      0.00000000	     19.85959240	      2.78837978	      4.54501775	     -8.31494850	      3.14644769	    -12.45362206	      0.00000000	    -11.20973477	     -1.72265750	      9.52545193
      5.88000000	     -0.05096841	     -0.63908508	     -5.40824827	     -1.96594717	      0.66534557	      0.20334872	    -13.25988300	      3.14382709	      1.22384414	    -18.81421277	     12.33073890	     -8.95610787	      0.00000000	     19.66270335	      3.50643713	      3.92434218	     -9.60855358	      2.01073351	    -12.74428187	      0.00000000	    -10.78095626	     -2.55028608	      9.53698922
      5.89000000	      0.03334733	     -0.03426346	     -5.38975180	     -1.95453934	      0.66561160	      0.20345533	    -12.72959458	      2.37028521	      1.10878767	    -21.59714480	      9.95939368	     -9.12213391	      0.00000000	     19.47809582	      4.23281469	      3.66205601	    -10.87876386	      0.97940462	    -13.17940684	      0.00000000	    -10.42373259	     -3.41234347	      9.55203374
      5.90000000	      0.28324873	      0.64237603	     -5.30852047	     -1.94333399	      0.66619155	      0.20353609	    -12.07185324	      1.47826692	      0.82490916	    -24.81601301	      7.54218923	     -8.75614974	      0.00000000	     19.14090553	      5.05097588	      3.47848352	    -12.21680795	      0.48281439	    -13.13781768	      0.00000000	    -10.34392197	     -4.38446294	      9.46812371
      5.91000000	      0.48127333	      1.29088450	     -5.28120919	     -1.93243592	      0.66680059	      0.20368594	    -11.01978347	      0.61222240	      0.71609695	    -28.51045880	      4.92524276	     -8.40084370	      0.00000000	     18.84161866	      5.83268107	      3.41102380	    -13.59993215	      0.51492161	    -13.14057697	      0.00000000	    -10.28940180	     -5.32507248	      9.46194881
      5.92000000	      0.57822746	      1.89486313	     -5.31190727	     -1.92191327	      0.66728966	      0.20391029	     -9.49207411	     -0.19824698	      0.73436529	    -32.70355822	      2.41620869	     -8.08684563	      0.00000000	     18.60102040	      6.55571345	      3.35818164	    -14.95176056	      1.06927099	    -13.18705962	      0.00000000	    -10.21768504	     -6.22005995	      9.56741664
      5.93000000	      0.52186401	      2.48954314	     -5.45520390	     -1.91177706	      0.66755916	      0.20423477	     -7.45380011	     -0.97689782	      0.92055955	    -37.31199318	      0.29738506	     -7.72541010	      0.00000000	     18.43470094	      7.23792662	      3.29411524	    -16.16770369	      2.05571781	    -13.14159092	      0.00000000	    -10.03974283	     -7.09968258	      9.77240213
      5.94000000	      0.55115520	      3.23915736	     -5.66371224	     -1.90197221	      0.66775074	      0.20456644	     -5.21210691	     -1.94202332	      1.03943725	    -42.17985784	     -1.17133786	     -7.69963020	      0.00000000	     18.00402317	      8.09635823	      3.24939006	    -16.99728876	      3.08836660	    -13.27617760	      0.00000000	    -10.03741124	     -8.16378073	     10.02184512
      5.95000000	      0.46913048	      4.02741433	     -5.94579816	     -1.89249306	      0.66777076	      0.20489066	     -2.66538419	     -2.89418077	      1.29944461	    -47.05981858	     -2.16866963	     -8.14507779	      0.00000000	     17.54668773	      8.97137403	      3.13427900	    -17.48880559	      4.20358888	    -13.37165308	      0.00000000	     -9.95855630	     -9.21604349	     10.26393683
      5.96000000	      0.38442133	      4.79346389	     -6.21386159	     -1.88326880	      0.66781079	      0.20520469	     -0.05459161	     -3.73362117	      1.64892013	    -51.69334448	     -2.77947569	     -9.21152463	      0.00000000	     16.93343217	      9.81407123	      2.97818635	    -17.62771165	      5.29993613	    -13.32735744	      0.00000000	     -9.94437941	    -10.22526512	     10.42159648
      5.97000000	      0.28009940	      5.40911091	     -6.36992241	     -1.87423604	      0.66797979	      0.20542463	      2.52901953	     -4.31778355	      1.97944957	    -55.87628054	     -3.19300824	    -10.87131759	      0.00000000	     16.22347047	     10.49136047	      2.74872074	    -17.55634203	      6.56927272	    -12.73528006	      0.00000000	     -9.98421952	    -11.01072401	     10.48780547
